<?xml version="1.0" encoding="utf-8"?>
<!-- Generator: Adobe Illustrator 19.1.0, SVG Export Plug-In . SVG Version: 6.00 Build 0)  -->
<svg version="1.1" id="Layer_1" xmlns="http://www.w3.org/2000/svg" xmlns:xlink="http://www.w3.org/1999/xlink" x="0px" y="0px"
	 viewBox="0 0 370 212" style="enable-background:new 0 0 370 212;" xml:space="preserve">
<style type="text/css">
	.st0{fill:#FFFFFF;}
</style>
<g>
	<g>
		<path class="st0" d="M65.6,210.9l-6.3-8.6v8.6h-2.8v-13.2h2.9l6.1,8.3v-8.3h2.8v13.2H65.6z"/>
		<path class="st0" d="M75.3,204.3c0-4,2.9-6.8,6.9-6.8c4,0,6.9,2.9,6.9,6.8c0,4-2.9,6.9-6.9,6.9C78.2,211.1,75.3,208.3,75.3,204.3z
			 M86.2,204.3c0-2.5-1.6-4.3-4-4.3c-2.4,0-4,1.9-4,4.3c0,2.5,1.6,4.3,4,4.3C84.6,208.6,86.2,206.7,86.2,204.3z"/>
		<path class="st0" d="M103.6,210.9l-2.6-4.7h-2.1v4.7h-2.8v-13.2h6.2c2.8,0,4.4,1.8,4.4,4.3c0,2.3-1.5,3.6-2.9,3.9l3,5H103.6z
			 M103.8,201.9c0-1.1-0.9-1.8-2-1.8h-3v3.6h3C103,203.7,103.8,203,103.8,201.9z"/>
		<path class="st0" d="M116.7,210.9v-10.8h-3.9v-2.5h10.6v2.5h-3.9v10.8H116.7z"/>
		<path class="st0" d="M139.2,210.9v-5.6h-6.3v5.6h-2.8v-13.2h2.8v5.2h6.3v-5.2h2.8v13.2H139.2z"/>
		<path class="st0" d="M171.2,210.9v-9.3l-3.7,9.3h-1.2l-3.7-9.3v9.3h-2.8v-13.2h4l3.2,8l3.2-8h4v13.2H171.2z"/>
		<path class="st0" d="M181.6,210.9v-13.2h9.4v2.5h-6.6v2.8h6.4v2.5h-6.4v3h6.6v2.5H181.6z"/>
		<path class="st0" d="M198.1,210.9v-13.2h2.8v10.8h5.6v2.5H198.1z"/>
		<path class="st0" d="M213.5,210.9v-13.2h7c2.5,0,3.8,1.6,3.8,3.4c0,1.7-1,2.8-2.3,3c1.4,0.2,2.5,1.6,2.5,3.3c0,2-1.3,3.6-3.9,3.6
			H213.5z M221.4,201.5c0-0.8-0.6-1.5-1.5-1.5h-3.5v2.9h3.5C220.8,203,221.4,202.4,221.4,201.5z M221.6,206.9c0-0.8-0.6-1.5-1.7-1.5
			h-3.6v3.1h3.6C221,208.5,221.6,207.9,221.6,206.9z"/>
		<path class="st0" d="M230.9,204.3c0-4,2.9-6.8,6.9-6.8c4,0,6.9,2.9,6.9,6.8c0,4-2.9,6.9-6.9,6.9
			C233.9,211.1,230.9,208.3,230.9,204.3z M241.9,204.3c0-2.5-1.6-4.3-4-4.3c-2.4,0-4,1.9-4,4.3c0,2.5,1.6,4.3,4,4.3
			C240.3,208.6,241.9,206.7,241.9,204.3z"/>
		<path class="st0" d="M251.7,205.6v-8h2.9v7.9c0,1.8,1.1,3.1,3.1,3.1c2,0,3.1-1.3,3.1-3.1v-7.9h2.9v7.9c0,3.3-1.9,5.5-6,5.5
			C253.7,211.1,251.7,208.9,251.7,205.6z"/>
		<path class="st0" d="M278.7,210.9l-2.6-4.7h-2.1v4.7h-2.8v-13.2h6.2c2.8,0,4.4,1.8,4.4,4.3c0,2.3-1.5,3.6-2.9,3.9l3,5H278.7z
			 M279,201.9c0-1.1-0.9-1.8-2-1.8h-3v3.6h3C278.1,203.7,279,203,279,201.9z"/>
		<path class="st0" d="M298.1,210.9l-6.3-8.6v8.6H289v-13.2h2.9l6.1,8.3v-8.3h2.8v13.2H298.1z"/>
		<path class="st0" d="M308.4,210.9v-13.2h9.4v2.5h-6.6v2.8h6.4v2.5h-6.4v3h6.6v2.5H308.4z"/>
	</g>
	<g>
		<path class="st0" d="M16.5,166.2l-5.4-9.8H6.8v9.8H1v-27.4h12.8c5.7,0,9.2,3.7,9.2,8.8c0,4.9-3,7.4-6,8.1l6.2,10.4H16.5z
			 M17.1,147.6c0-2.3-1.8-3.7-4.1-3.7H6.8v7.4H13C15.3,151.3,17.1,149.9,17.1,147.6z"/>
		<path class="st0" d="M37.7,166.2v-27.4h19.4v5.1H43.6v5.8h13.3v5.1H43.6v6.2h13.6v5.1H37.7z"/>
		<path class="st0" d="M72,166.2v-27.4h19.4v5.1H77.9v5.8h13.3v5.1H77.9v11.4H72z"/>
		<path class="st0" d="M105.8,166.2v-27.4h5.8v22.3h11.6v5.1H105.8z"/>
		<path class="st0" d="M137.6,166.2v-27.4H157v5.1h-13.6v5.8h13.3v5.1h-13.3v6.2H157v5.1H137.6z"/>
		<path class="st0" d="M170.6,152.5c0-8.4,6.4-14.2,14.6-14.2c6,0,9.5,3.3,11.5,6.7l-5,2.5c-1.2-2.2-3.6-4-6.5-4c-5,0-8.6,3.8-8.6,9
			c0,5.2,3.6,9,8.6,9c2.8,0,5.3-1.7,6.5-4l5,2.4c-2,3.4-5.4,6.7-11.5,6.7C176.9,166.7,170.6,160.9,170.6,152.5z"/>
		<path class="st0" d="M216.8,166.2v-22.3h-8v-5.1h21.9v5.1h-8v22.3H216.8z"/>
		<path class="st0" d="M244.7,166.2v-27.4h5.8v27.4H244.7z"/>
		<path class="st0" d="M264.9,152.5c0-8.3,6-14.2,14.3-14.2c8.3,0,14.4,5.9,14.4,14.2c0,8.3-6,14.2-14.4,14.2
			C271,166.7,264.9,160.8,264.9,152.5z M287.6,152.5c0-5.1-3.3-9-8.4-9c-5.1,0-8.3,3.9-8.3,9c0,5.1,3.2,9,8.3,9
			C284.3,161.5,287.6,157.6,287.6,152.5z"/>
		<path class="st0" d="M326.9,166.2l-13.1-17.9v17.9H308v-27.4h6l12.7,17.2v-17.2h5.8v27.4H326.9z"/>
		<path class="st0" d="M346.4,162.3l3.2-4.4c1.9,2,4.9,3.7,8.7,3.7c3.2,0,4.8-1.5,4.8-3c0-4.9-15.8-1.5-15.8-11.8
			c0-4.6,3.9-8.4,10.4-8.4c4.4,0,8,1.3,10.7,3.8l-3.2,4.3c-2.2-2.1-5.2-3-8-3c-2.5,0-3.9,1.1-3.9,2.8c0,4.4,15.8,1.4,15.8,11.7
			c0,5-3.6,8.8-11,8.8C352.7,166.7,349,164.9,346.4,162.3z"/>
	</g>
	<g>
		<g>
			<path class="st0" d="M214.6,41.4h-31.2l27.5,9.2c0,0,0,0,0,0h5.7c0.4,0,0.9,0,1.1,0h0.6c20.1-0.6,30.9-14.4,31.2-28
				c-3.1,0-6.3,0-9.4,0C239.9,33.6,231.2,41.4,214.6,41.4z"/>
			<path class="st0" d="M210.9,50.6L210.9,50.6C210.9,50.6,210.9,50.6,210.9,50.6z"/>
			<path class="st0" d="M218.3,11c7.9,0.4,11.7,4,11.7,10.9c0,0.2,0,0.5,0,0.7c3.3,0,6.8,0,10.2,0c0-0.2,0-0.4,0-0.6
				c0-12.7-8.7-21.8-24-21.1h-67.7l9.9,10.1H218.3z"/>
			<polygon class="st0" points="120.4,0.9 120.4,11 138.3,11 138.5,11 138.5,31.5 138.5,76.1 148.5,85.9 148.5,41.4 148.5,0.9 			
				"/>
			<polygon class="st0" points="120.4,95.7 176.4,95.7 176.4,85.9 148.5,85.9 120.4,85.9 			"/>
			<path class="st0" d="M248.9,85.9c-18.6,0-23.4-7.3-38.4-22.3c-19.2-19.2-27.1-22.3-27.1-22.3h-34.9l9.9,9.2H176c0,0,0.1,0,0.2,0
				c1,0.2,7.2,1.8,19.6,12.7c3.4,3,6.6,6.4,9.8,9.6c6,6,11.7,11.5,18.5,16c7.2,4.5,14.9,6.8,23,6.8c0.1,0,0.1,0,0.2,0
				c1.1,0,3.2,0,3.2,0h8v-9.8H248.9z"/>
		</g>
	</g>
</g>
</svg>
